<svg version="1.1" id="Layer_1" xmlns="http://www.w3.org/2000/svg" xmlns:xlink="http://www.w3.org/1999/xlink" x="0px" y="0px"
	 width="100%" viewBox="0 0 68 65" enable-background="new 0 0 68 65" xml:space="preserve">
<path fill="#FEFDFD" opacity="1.000000" stroke="none" 
	d="
M69.000000,49.000000 
	C69.000000,54.655933 69.000000,60.311863 69.000000,65.983902 
	C46.387020,65.983902 23.774029,65.983902 1.080518,65.983902 
	C1.080518,44.428299 1.080518,22.856245 1.080518,1.142090 
	C23.666031,1.142090 46.332890,1.142090 69.000000,1.142090 
	C69.000000,6.076564 69.000000,11.067084 68.647202,16.524509 
	C67.063477,16.803762 65.832550,16.616112 64.891090,16.472591 
	C64.891090,18.365992 64.891090,19.975355 64.891090,22.923655 
	C63.079369,20.827284 62.383942,19.930046 61.594883,19.124533 
	C56.331966,13.751854 46.361671,12.002100 40.611187,15.593687 
	C39.157368,15.643327 38.091946,15.585805 37.010242,15.174400 
	C34.885971,12.178437 33.083782,11.684275 31.845991,15.685885 
	C31.790310,15.826263 32.014687,16.028454 31.767834,15.935963 
	C31.361252,15.916760 31.201523,15.990050 30.788151,16.030434 
	C30.366932,16.029032 30.199356,16.060534 29.843985,15.832745 
	C27.803635,16.036400 25.951080,16.499348 24.030380,17.087467 
	C23.962234,17.212641 23.689146,17.130964 23.777714,16.861031 
	C23.556000,16.449362 23.245722,16.307627 22.708401,16.093832 
	C22.481359,16.021772 22.024916,16.158232 21.649656,16.082054 
	C20.514215,16.056667 19.754032,16.107456 18.780416,16.087217 
	C18.566982,16.016190 18.122122,16.083242 17.811932,16.081638 
	C17.303875,16.715511 17.106009,17.350986 16.865042,18.454151 
	C16.854616,25.620409 16.887289,32.318974 16.684914,39.080269 
	C16.590990,39.802578 16.732113,40.462158 16.880825,41.464294 
	C16.255836,45.910805 20.062067,45.231384 22.015720,46.890480 
	C24.563221,47.469639 27.102512,47.715515 29.847435,48.250347 
	C31.361631,49.406158 32.670197,50.273014 34.210388,51.373085 
	C34.627872,51.722366 34.813740,51.838432 34.999382,52.325462 
	C35.051327,53.832829 35.103493,54.969234 35.168911,56.394371 
	C37.583332,54.182289 42.791756,55.730190 42.220428,50.154716 
	C42.957375,49.829834 43.412518,49.716087 43.902222,50.018799 
	C44.728210,51.593655 45.519646,52.752060 46.311081,53.910469 
	C47.406658,52.821503 48.898003,51.904003 49.468376,50.587494 
	C49.898670,49.594315 49.150311,48.090488 49.055210,46.537067 
	C49.778355,46.142147 50.372849,46.024105 50.981247,46.267395 
	C52.529263,49.271015 53.724426,49.120903 56.296150,45.871777 
	C58.204109,44.803673 59.930683,44.615593 58.672951,41.497032 
	C57.613918,38.871132 60.214588,36.974174 63.639286,36.411839 
	C62.251652,40.772488 61.116512,44.339676 60.009266,47.819199 
	C63.644711,48.296661 66.322357,48.648327 69.000000,49.000000 
z"/>
<path fill="#FBFDFD" opacity="1.000000" stroke="none" 
	d="
M40.999588,15.486526 
	C46.361671,12.002100 56.331966,13.751854 61.594883,19.124533 
	C62.383942,19.930046 63.079369,20.827284 64.891090,22.923655 
	C64.891090,19.975355 64.891090,18.365992 64.891090,16.472591 
	C65.832550,16.616112 67.063477,16.803762 68.647202,16.995707 
	C69.000000,27.354227 69.000000,37.708454 69.000000,48.531342 
	C66.322357,48.648327 63.644711,48.296661 60.009266,47.819199 
	C61.116512,44.339676 62.251652,40.772488 63.639286,36.411839 
	C60.214588,36.974174 57.613918,38.871132 58.672951,41.497032 
	C59.930683,44.615593 58.204109,44.803673 55.937847,45.868568 
	C54.157333,45.651115 53.032337,45.308388 51.953842,44.636261 
	C51.985508,43.863659 51.970673,43.420464 52.175636,42.741203 
	C52.533405,41.661758 52.671375,40.818382 53.121876,39.796486 
	C53.271496,37.700695 53.108589,35.783421 52.835114,33.643562 
	C52.806576,32.946022 52.888603,32.471062 53.188957,31.944321 
	C53.229683,31.602415 53.052086,31.312288 52.771767,30.709776 
	C52.126064,29.510967 51.583080,28.624544 50.604843,27.590546 
	C46.580105,27.387125 42.990616,27.331282 39.030960,27.191769 
	C38.158089,27.056139 37.655384,27.004181 37.084423,26.545399 
	C37.002640,24.759989 36.989113,23.381403 37.225521,21.868013 
	C37.553314,21.560644 37.631172,21.388079 37.922905,21.318192 
	C38.474186,21.430534 38.759720,21.313593 39.432133,21.178528 
	C43.496281,21.115110 47.121681,20.943213 51.057507,20.852245 
	C51.768616,19.679096 52.169296,18.425016 52.719139,16.910271 
	C52.564911,16.452354 52.261520,16.255104 51.709389,15.955768 
	C51.293339,15.918020 51.126034,15.982357 50.517853,15.936583 
	C47.051182,15.713156 44.025387,15.599840 40.999588,15.486526 
z"/>
<path fill="#F2FBFF" opacity="1.000000" stroke="none" 
	d="
M29.641804,47.961391 
	C27.102512,47.715515 24.563221,47.469639 22.119808,46.775322 
	C22.215687,46.326881 22.034079,46.075191 22.461224,46.018215 
	C23.192926,42.663521 23.497488,39.365803 24.143982,36.059875 
	C25.667967,35.195789 26.850019,34.339916 28.259712,33.531116 
	C28.487354,33.578194 28.949917,33.624939 28.969154,33.831642 
	C29.350842,34.114864 29.713293,34.191380 30.070595,34.652512 
	C29.990303,36.302044 29.915159,37.566967 29.597076,38.926056 
	C29.514555,40.071445 29.674973,41.122673 29.951836,42.535881 
	C29.926121,44.585709 29.783962,46.273548 29.641804,47.961391 
z"/>
<path fill="#1A223A" opacity="1.000000" stroke="none" 
	d="
M51.955837,42.977268 
	C51.970673,43.420464 51.985508,43.863659 51.716480,44.695580 
	C51.128368,45.273766 50.973274,45.547684 50.967346,45.906059 
	C50.372849,46.024105 49.778355,46.142147 48.754963,46.647552 
	C47.551472,47.356598 46.776878,47.678276 45.691200,47.865765 
	C44.272888,45.939213 43.165657,44.146851 42.231186,42.098583 
	C42.935452,41.566334 43.466957,41.289986 44.043041,41.285889 
	C44.298141,41.704258 44.508659,41.850380 44.719177,41.996506 
	C44.741978,41.412285 44.764774,40.828068 44.791405,39.970901 
	C45.237480,39.129490 45.679729,38.561024 46.496902,37.975563 
	C47.588383,36.636112 48.304943,35.313652 49.333035,33.992348 
	C50.058762,33.991127 50.472961,33.988747 50.923882,34.424160 
	C51.292347,37.567062 51.624092,40.272163 51.955837,42.977268 
z"/>
<path fill="#182535" opacity="1.000000" stroke="none" 
	d="
M18.993851,16.158245 
	C19.754032,16.107456 20.514215,16.056667 21.639175,16.527874 
	C23.066666,20.282749 19.683254,24.430101 24.444073,26.982754 
	C25.881098,27.130060 26.921236,27.278605 27.918587,27.614153 
	C27.875801,27.801157 27.790335,28.175190 27.467522,28.147791 
	C26.107061,28.741745 25.069412,29.363100 23.714809,30.014442 
	C22.768599,30.426039 22.139341,30.807648 20.697578,31.681995 
	C22.462408,31.857687 23.247946,31.935886 24.060371,32.426727 
	C24.094019,33.115070 24.100773,33.390766 24.084572,33.878593 
	C23.759789,34.383682 23.457954,34.676643 22.845570,35.169220 
	C22.346388,36.576496 22.157757,37.784157 21.643650,38.993595 
	C20.884449,38.993004 20.450722,38.990635 20.012835,38.574516 
	C19.670401,30.826599 19.332125,23.492422 18.993851,16.158245 
z"/>
<path fill="#F3F8FC" opacity="1.000000" stroke="none" 
	d="
M27.961374,27.427149 
	C26.921236,27.278605 25.881098,27.130060 24.411816,26.529413 
	C24.021290,23.038973 24.059908,20.000635 24.098526,16.962296 
	C25.951080,16.499348 27.803635,16.036400 29.829365,16.186653 
	C30.138987,17.240477 30.275433,17.681099 30.394810,18.561954 
	C30.202793,21.645092 30.027843,24.287994 29.517063,26.897099 
	C28.774614,27.051247 28.367994,27.239197 27.961374,27.427149 
z"/>
<path fill="#121E2C" opacity="1.000000" stroke="none" 
	d="
M18.780416,16.087219 
	C19.332125,23.492422 19.670401,30.826599 19.863739,38.810257 
	C19.205959,39.636005 18.693121,39.812275 18.060757,39.722343 
	C17.600805,39.309937 17.260382,39.163738 16.919960,39.017540 
	C16.887289,32.318974 16.854616,25.620409 17.181099,18.395157 
	C17.734211,17.273396 17.928167,16.678318 18.122122,16.083242 
	C18.122122,16.083242 18.566982,16.016190 18.780416,16.087219 
z"/>
<path fill="#F5FBFC" opacity="1.000000" stroke="none" 
	d="
M46.002285,47.999954 
	C46.776878,47.678276 47.551472,47.356598 48.626316,46.924431 
	C49.150311,48.090488 49.898670,49.594315 49.468376,50.587494 
	C48.898003,51.904003 47.406658,52.821503 46.311081,53.910469 
	C45.519646,52.752060 44.728210,51.593655 44.077785,49.796776 
	C44.813293,48.772190 45.407791,48.386074 46.002285,47.999954 
z"/>
<path fill="#F5FBFC" opacity="1.000000" stroke="none" 
	d="
M41.938633,50.365856 
	C42.791756,55.730190 37.583332,54.182289 35.168911,56.394371 
	C35.103493,54.969234 35.051327,53.832829 35.307747,52.216202 
	C36.574635,51.354927 37.532932,50.973869 38.857719,50.592369 
	C40.153568,50.337479 41.082932,50.083035 41.887009,49.948254 
	C41.761723,50.067917 41.938633,50.365856 41.938633,50.365856 
z"/>
<path fill="#222B3D" opacity="1.000000" stroke="none" 
	d="
M45.691200,47.865768 
	C45.407791,48.386074 44.813293,48.772190 44.043228,49.380325 
	C43.412518,49.716087 42.957375,49.829834 42.220428,50.154716 
	C41.938633,50.365856 41.761723,50.067917 41.698349,49.730736 
	C41.095406,49.216610 40.555836,49.039669 39.968185,48.518631 
	C39.611885,46.814892 39.303661,45.455242 39.211044,43.885044 
	C40.303913,43.234489 41.181171,42.794487 42.058426,42.354488 
	C43.165657,44.146851 44.272888,45.939213 45.691200,47.865768 
z"/>
<path fill="#1D242B" opacity="1.000000" stroke="none" 
	d="
M18.180283,39.988548 
	C18.693121,39.812275 19.205959,39.636005 19.867897,39.223999 
	C20.450722,38.990635 20.884449,38.993004 21.653702,39.435947 
	C22.004179,41.942741 22.019129,44.008968 22.034079,46.075191 
	C22.034079,46.075191 22.215687,46.326881 22.111601,46.442036 
	C20.062067,45.231384 16.255836,45.910805 17.296782,41.283863 
	C17.863525,40.503433 18.021904,40.245987 18.180283,39.988548 
z"/>
<path fill="#000001" opacity="1.000000" stroke="none" 
	d="
M29.847435,48.250347 
	C29.783962,46.273548 29.926121,44.585709 30.208195,42.156898 
	C30.178747,40.554585 30.009382,39.693237 29.840017,38.831890 
	C29.915159,37.566967 29.990303,36.302044 30.535454,34.617043 
	C31.311949,34.145199 31.618437,34.093433 31.947729,34.435455 
	C31.999929,35.883320 32.029324,36.937401 32.035919,38.392021 
	C32.025257,39.862606 32.037395,40.932655 32.030846,42.404167 
	C32.040813,43.877682 32.069469,44.949730 32.078308,46.374535 
	C32.697899,47.500938 33.337311,48.274593 33.978500,49.308243 
	C33.976986,49.741535 33.973690,49.914833 33.970718,50.263458 
	C33.964592,50.672581 33.967167,50.906273 33.978764,51.139866 
	C32.670197,50.273014 31.361631,49.406158 29.847435,48.250347 
z"/>
<path fill="#00000F" opacity="1.000000" stroke="none" 
	d="
M24.030380,17.087467 
	C24.059908,20.000635 24.021290,23.038973 24.014931,26.530651 
	C19.683254,24.430101 23.066666,20.282749 22.014435,16.604050 
	C22.024916,16.158232 22.481359,16.021772 22.762650,16.311775 
	C23.115667,16.952873 23.330736,17.129271 23.689146,17.130964 
	C23.689146,17.130964 23.962234,17.212641 24.030380,17.087467 
z"/>
<path fill="#000000" opacity="1.000000" stroke="none" 
	d="
M29.852894,26.930899 
	C30.027843,24.287994 30.202793,21.645092 30.607574,18.375923 
	C30.905535,17.187551 30.973663,16.625446 31.041792,16.063339 
	C31.201523,15.990050 31.361252,15.916760 31.774921,16.187126 
	C32.041847,16.697790 32.054832,16.864798 32.047749,17.481680 
	C32.007820,20.938482 31.987963,23.945410 31.612461,26.922504 
	C30.788841,26.905415 30.320868,26.918156 29.852894,26.930899 
z"/>
<path fill="#000439" opacity="1.000000" stroke="none" 
	d="
M32.067822,17.031803 
	C32.054832,16.864798 32.041847,16.697790 32.021774,16.279617 
	C32.014687,16.028454 31.790310,15.826263 32.262459,15.800691 
	C34.165249,15.692840 35.595890,15.610561 37.026527,15.528284 
	C38.091946,15.585805 39.157368,15.643327 40.611187,15.593687 
	C44.025387,15.599840 47.051182,15.713156 50.524166,16.164711 
	C50.971352,16.502949 50.941734,16.958483 50.479206,16.962334 
	C45.340790,16.997972 40.664902,17.029758 35.596508,17.041786 
	C34.158607,17.025288 33.113216,17.028545 32.067822,17.031803 
z"/>
<path fill="#F4F4F3" opacity="1.000000" stroke="none" 
	d="
M37.010242,15.174400 
	C35.595890,15.610561 34.165249,15.692840 32.318142,15.660313 
	C33.083782,11.684275 34.885971,12.178437 37.010242,15.174400 
z"/>
<path fill="#F5FBFC" opacity="1.000000" stroke="none" 
	d="
M50.981247,46.267395 
	C50.973274,45.547684 51.128368,45.273766 51.669983,45.024986 
	C53.032337,45.308388 54.157333,45.651115 55.640629,45.997051 
	C53.724426,49.120903 52.529263,49.271015 50.981247,46.267395 
z"/>
<path fill="#00000F" opacity="1.000000" stroke="none" 
	d="
M34.210388,51.373085 
	C33.967167,50.906273 33.964592,50.672581 34.313496,50.227005 
	C35.113472,49.980495 35.570992,49.945774 36.358482,49.926888 
	C37.128281,49.966145 37.568108,49.989559 38.129234,50.157539 
	C38.250530,50.302101 38.491230,50.592812 38.491230,50.592812 
	C37.532932,50.973869 36.574635,51.354927 35.307972,51.845245 
	C34.813740,51.838432 34.627872,51.722366 34.210388,51.373085 
z"/>
<path fill="#B9C1C5" opacity="1.000000" stroke="none" 
	d="
M17.811932,16.081638 
	C17.928167,16.678318 17.734211,17.273396 17.224197,17.927467 
	C17.106009,17.350986 17.303875,16.715511 17.811932,16.081638 
z"/>
<path fill="#B9C1C5" opacity="1.000000" stroke="none" 
	d="
M18.060755,39.722340 
	C18.021904,40.245987 17.863525,40.503433 17.289192,40.941311 
	C16.732113,40.462158 16.590990,39.802578 16.684914,39.080269 
	C17.260382,39.163738 17.600805,39.309937 18.060755,39.722340 
z"/>
<path fill="#5C616A" opacity="1.000000" stroke="none" 
	d="
M30.788151,16.030434 
	C30.973663,16.625446 30.905535,17.187551 30.624641,17.935690 
	C30.275433,17.681099 30.138987,17.240477 30.017162,16.445946 
	C30.199356,16.060534 30.366932,16.029032 30.788151,16.030434 
z"/>
<path fill="#4E5667" opacity="1.000000" stroke="none" 
	d="
M23.777714,16.861031 
	C23.330736,17.129271 23.115667,16.952873 22.989691,16.383835 
	C23.245722,16.307627 23.556000,16.449362 23.777714,16.861031 
z"/>
<path fill="#1B283E" opacity="1.000000" stroke="none" 
	d="
M35.989014,17.061544 
	C40.664902,17.029758 45.340790,16.997972 50.500828,17.295506 
	C50.955017,18.066853 50.925056,18.508883 50.442650,18.966087 
	C47.878456,18.987534 45.722191,18.732874 43.669128,19.083141 
	C42.044830,19.360256 40.547237,20.380053 38.993382,21.070045 
	C38.759720,21.313593 38.474186,21.430534 37.472050,21.258057 
	C36.205734,21.058201 35.604156,21.021160 35.139854,20.669044 
	C35.514427,19.256495 35.751720,18.159019 35.989014,17.061544 
z"/>
<path fill="#081925" opacity="1.000000" stroke="none" 
	d="
M39.401123,27.275440 
	C42.990616,27.331282 46.580105,27.387125 50.582302,27.842960 
	C50.663795,28.826307 50.332584,29.409660 49.573120,29.997612 
	C47.431419,30.004951 45.717972,30.007690 43.630630,30.005568 
	C42.509876,30.003115 41.763016,30.005526 40.700348,30.003883 
	C39.965073,30.001137 39.545609,30.002441 39.060894,29.661781 
	C39.130806,28.638357 39.265965,27.956898 39.401123,27.275440 
z"/>
<path fill="#000001" opacity="1.000000" stroke="none" 
	d="
M50.001373,29.993013 
	C50.332584,29.409660 50.663795,28.826307 51.017548,27.990540 
	C51.583080,28.624544 52.126064,29.510967 52.644505,30.968262 
	C52.736847,31.691460 52.853737,31.843781 52.970631,31.996103 
	C52.888603,32.471062 52.806576,32.946022 52.610710,33.972019 
	C52.601036,36.340370 52.705193,38.157688 52.809349,39.975002 
	C52.671375,40.818382 52.533405,41.661758 52.175636,42.741203 
	C51.624092,40.272163 51.292347,37.567062 50.955101,34.060432 
	C50.633522,32.170273 50.317448,31.081644 50.001373,29.993013 
z"/>
<path fill="#0C1B2B" opacity="1.000000" stroke="none" 
	d="
M39.432133,21.178528 
	C40.547237,20.380053 42.044830,19.360256 43.669128,19.083141 
	C45.722191,18.732874 47.878456,18.987534 50.427631,19.423164 
	C50.825733,20.167147 50.786407,20.469231 50.747078,20.771317 
	C47.121681,20.943213 43.496281,21.115110 39.432133,21.178528 
z"/>
<path fill="#101A30" opacity="1.000000" stroke="none" 
	d="
M36.975582,22.002815 
	C36.989113,23.381403 37.002640,24.759989 36.944870,26.850258 
	C36.817551,28.004629 36.761536,28.447321 36.483467,28.883305 
	C36.261410,28.876598 35.822147,28.943472 35.588436,28.830433 
	C34.896099,28.477718 34.437469,28.238045 33.984280,27.582792 
	C33.996799,25.782869 34.003887,24.398527 34.327072,22.987602 
	C35.420643,22.641617 36.198112,22.322216 36.975582,22.002815 
z"/>
<path fill="#B9C8DD" opacity="1.000000" stroke="none" 
	d="
M36.705521,28.890013 
	C36.761536,28.447321 36.817551,28.004629 37.013123,27.257080 
	C37.655384,27.004181 38.158089,27.056139 39.030960,27.191769 
	C39.265965,27.956898 39.130806,28.638357 39.006203,29.996971 
	C39.069511,31.120745 39.122261,31.567366 39.132248,32.291664 
	C39.223011,32.918175 39.356544,33.267010 39.192596,33.670639 
	C38.324638,33.521069 37.754162,33.316704 37.043907,32.756413 
	C36.835472,31.639442 36.766823,30.878405 36.783710,29.811010 
	C36.814678,29.299774 36.760101,29.094894 36.705521,28.890013 
z"/>
<path fill="#C1C9DC" opacity="1.000000" stroke="none" 
	d="
M53.121880,39.796486 
	C52.705193,38.157688 52.601036,36.340370 52.721283,34.194603 
	C53.108589,35.783421 53.271496,37.700695 53.121880,39.796486 
z"/>
<path fill="#000000" opacity="1.000000" stroke="none" 
	d="
M51.057507,20.852247 
	C50.786407,20.469231 50.825733,20.167147 50.880074,19.407990 
	C50.925056,18.508883 50.955017,18.066853 50.963356,17.291653 
	C50.941734,16.958483 50.971352,16.502949 50.965042,16.274822 
	C51.126034,15.982357 51.293339,15.918020 51.754402,16.177334 
	C52.055038,16.854368 52.228977,17.077686 52.569977,17.170937 
	C52.169296,18.425016 51.768616,19.679096 51.057507,20.852247 
z"/>
<path fill="#1E2336" opacity="1.000000" stroke="none" 
	d="
M37.225521,21.868013 
	C36.198112,22.322216 35.420643,22.641617 34.344246,22.686541 
	C34.364407,21.936081 34.683491,21.460100 35.002575,20.984119 
	C35.604156,21.021160 36.205734,21.058201 37.258171,21.155376 
	C37.631172,21.388079 37.553314,21.560644 37.225521,21.868013 
z"/>
<path fill="#C1C9DC" opacity="1.000000" stroke="none" 
	d="
M53.188957,31.944321 
	C52.853737,31.843781 52.736847,31.691460 52.747223,31.280651 
	C53.052086,31.312288 53.229683,31.602415 53.188957,31.944321 
z"/>
<path fill="#687078" opacity="1.000000" stroke="none" 
	d="
M52.719139,16.910271 
	C52.228977,17.077686 52.055038,16.854368 52.003143,16.279417 
	C52.261520,16.255104 52.564911,16.452354 52.719139,16.910271 
z"/>
<path fill="#19283B" opacity="1.000000" stroke="none" 
	d="
M36.698170,30.117365 
	C36.766823,30.878405 36.835472,31.639442 36.947517,32.758362 
	C36.990913,33.116238 36.899338,32.946556 36.669907,32.955101 
	C36.440479,32.963646 35.982536,32.997303 35.686600,33.018875 
	C34.925163,33.358162 34.459660,33.675869 33.649593,33.996803 
	C32.844994,34.013912 32.384960,34.027790 31.924925,34.041668 
	C31.618437,34.093433 31.311949,34.145199 30.540604,34.232430 
	C29.713293,34.191380 29.350842,34.114864 28.801498,33.467033 
	C27.087564,32.601841 25.560522,32.307964 24.033482,32.014088 
	C23.247946,31.935886 22.462408,31.857687 20.697578,31.681995 
	C22.139341,30.807648 22.768599,30.426039 24.068798,30.018997 
	C25.762197,29.396820 28.400003,31.510073 27.790335,28.175190 
	C27.790335,28.175190 27.875801,27.801157 27.918587,27.614153 
	C28.367994,27.239197 28.774614,27.051247 29.517065,26.897099 
	C30.320868,26.918156 30.788841,26.905415 31.780275,27.173948 
	C32.862106,27.636274 33.420475,27.817324 33.978844,27.998371 
	C34.437469,28.238045 34.896099,28.477718 35.605736,29.114258 
	C35.830700,29.698561 35.804653,29.885996 35.551559,30.077309 
	C35.106461,30.367893 34.888405,30.654600 34.670349,30.941307 
	C34.909393,31.094439 35.148434,31.247572 35.387478,31.400703 
	C35.560242,31.028145 35.733006,30.655586 36.106430,30.253860 
	C36.307095,30.224695 36.698170,30.117365 36.698170,30.117365 
z"/>
<path fill="#000000" opacity="1.000000" stroke="none" 
	d="
M22.461224,46.018215 
	C22.019129,44.008968 22.004179,41.942741 21.979176,39.434166 
	C22.157757,37.784157 22.346388,36.576496 22.945408,35.372097 
	C23.295200,35.741123 23.443953,35.972034 23.802050,36.068085 
	C23.497488,39.365803 23.192926,42.663521 22.461224,46.018215 
z"/>
<path fill="#E8EEF9" opacity="1.000000" stroke="none" 
	d="
M24.143982,36.059875 
	C23.443953,35.972034 23.295200,35.741123 23.255959,35.172478 
	C23.457954,34.676643 23.759789,34.383682 24.473686,33.822014 
	C25.934525,33.530212 26.983297,33.507126 28.032070,33.484039 
	C26.850019,34.339916 25.667967,35.195789 24.143982,36.059875 
z"/>
<path fill="#A9B8BD" opacity="1.000000" stroke="none" 
	d="
M29.597076,38.926056 
	C30.009382,39.693237 30.178747,40.554585 30.091751,41.794914 
	C29.674973,41.122673 29.514555,40.071445 29.597076,38.926056 
z"/>
<path fill="#000004" opacity="1.000000" stroke="none" 
	d="
M28.259712,33.531113 
	C26.983297,33.507126 25.934525,33.530212 24.496639,33.609882 
	C24.100773,33.390766 24.094019,33.115070 24.060371,32.426727 
	C25.560522,32.307964 27.087564,32.601841 28.782261,33.260326 
	C28.949917,33.624939 28.487354,33.578194 28.259712,33.531113 
z"/>
<path fill="#F5FCFE" opacity="1.000000" stroke="none" 
	d="
M37.087303,33.114288 
	C37.754162,33.316704 38.324638,33.521069 39.588737,33.632900 
	C41.869549,33.612446 43.456734,33.684525 45.086098,34.027996 
	C45.396599,34.536064 45.664928,34.772736 46.050224,35.244469 
	C46.264393,35.625095 46.361584,35.770664 46.320518,36.245064 
	C46.162167,37.046783 46.142075,37.519672 46.121979,37.992558 
	C45.679729,38.561024 45.237480,39.129490 44.547485,40.115532 
	C44.199314,40.693287 44.098888,40.853466 43.998459,41.013641 
	C43.466957,41.289986 42.935452,41.566334 42.231186,42.098583 
	C41.181171,42.794487 40.303913,43.234489 38.859032,43.891899 
	C37.795990,43.404282 37.300571,42.699265 36.929245,41.608624 
	C37.011162,40.148327 36.968987,39.073647 37.025661,37.631538 
	C37.081554,36.507553 37.038601,35.750992 37.095745,34.654373 
	C37.097012,33.858395 36.998177,33.402473 36.899338,32.946556 
	C36.899338,32.946556 36.990913,33.116238 37.087303,33.114288 
z"/>
<path fill="#1D283E" opacity="1.000000" stroke="none" 
	d="
M49.573120,29.997612 
	C50.317448,31.081644 50.633522,32.170273 50.918377,33.622635 
	C50.472961,33.988747 50.058762,33.991127 49.015450,34.004555 
	C47.968311,34.079659 47.550289,34.143711 46.844734,34.095051 
	C46.365105,33.908249 46.173004,33.834160 45.836304,33.499771 
	C45.131260,32.808994 44.570820,32.378517 44.005775,31.624662 
	C44.002289,30.871000 44.003407,30.440714 44.004524,30.010429 
	C45.717972,30.007690 47.431419,30.004951 49.573120,29.997612 
z"/>
<path fill="#091633" opacity="1.000000" stroke="none" 
	d="
M47.132271,34.207764 
	C47.550289,34.143711 47.968311,34.079659 48.703918,34.003395 
	C48.304943,35.313652 47.588383,36.636112 46.496902,37.975563 
	C46.142075,37.519672 46.162167,37.046783 46.493160,36.078979 
	C46.913464,35.125294 47.022869,34.666527 47.132271,34.207764 
z"/>
<path fill="#0F1B28" opacity="1.000000" stroke="none" 
	d="
M44.043041,41.285889 
	C44.098888,40.853466 44.199314,40.693287 44.543655,40.388481 
	C44.764774,40.828068 44.741978,41.412285 44.719177,41.996506 
	C44.508659,41.850380 44.298141,41.704258 44.043041,41.285889 
z"/>
<path fill="#0A1723" opacity="1.000000" stroke="none" 
	d="
M27.467522,28.147791 
	C28.400003,31.510073 25.762197,29.396820 24.385750,29.989006 
	C25.069412,29.363100 26.107061,28.741745 27.467522,28.147791 
z"/>
<path fill="#00000F" opacity="1.000000" stroke="none" 
	d="
M40.016262,48.862728 
	C40.555836,49.039669 41.095406,49.216610 41.823639,49.611069 
	C41.082932,50.083035 40.153568,50.337479 38.857719,50.592369 
	C38.491230,50.592812 38.250530,50.302101 38.291382,49.901367 
	C38.893578,49.287998 39.454922,49.075363 40.016262,48.862728 
z"/>
<path fill="#1B2239" opacity="1.000000" stroke="none" 
	d="
M39.968185,48.518631 
	C39.454922,49.075363 38.893578,49.287998 38.170090,49.756805 
	C37.568108,49.989559 37.128281,49.966145 36.313705,49.642799 
	C35.284882,49.244663 34.630802,49.146458 33.976719,49.048252 
	C33.337311,48.274593 32.697899,47.500938 32.428436,46.360748 
	C33.849041,44.684628 34.899700,43.375038 36.163376,42.039455 
	C36.376389,42.013466 36.805153,41.994244 36.805153,41.994244 
	C37.300571,42.699265 37.795990,43.404282 38.643421,44.102448 
	C39.303661,45.455242 39.611885,46.814892 39.968185,48.518631 
z"/>
<path fill="#18212B" opacity="1.000000" stroke="none" 
	d="
M36.929245,41.608624 
	C36.805153,41.994244 36.376389,42.013466 35.891037,42.125748 
	C34.286968,42.159588 33.168251,42.081142 32.049534,42.002701 
	C32.037395,40.932655 32.025257,39.862606 32.346424,38.369011 
	C34.095425,37.963299 35.511116,37.981133 36.926811,37.998970 
	C36.968987,39.073647 37.011162,40.148327 36.929245,41.608624 
z"/>
<path fill="#1E1D32" opacity="1.000000" stroke="none" 
	d="
M37.025661,37.631538 
	C35.511116,37.981133 34.095425,37.963299 32.369225,37.968475 
	C32.029324,36.937401 31.999929,35.883320 31.947729,34.435455 
	C32.384960,34.027790 32.844994,34.013912 33.838955,34.250210 
	C34.973526,34.644489 35.574177,34.788593 36.379940,34.949310 
	C36.585056,34.965931 36.995644,34.994434 36.995644,34.994434 
	C37.038601,35.750992 37.081554,36.507553 37.025661,37.631538 
z"/>
<path fill="#131B32" opacity="1.000000" stroke="none" 
	d="
M32.030846,42.404167 
	C33.168251,42.081142 34.286968,42.159588 35.678024,42.151737 
	C34.899700,43.375038 33.849041,44.684628 32.448254,46.007999 
	C32.069469,44.949730 32.040813,43.877682 32.030846,42.404167 
z"/>
<path fill="#12182E" opacity="1.000000" stroke="none" 
	d="
M33.978500,49.308243 
	C34.630802,49.146458 35.284882,49.244663 35.983738,49.626961 
	C35.570992,49.945774 35.113472,49.980495 34.313171,50.051674 
	C33.973690,49.914833 33.976986,49.741535 33.978500,49.308243 
z"/>
<path fill="#232A3D" opacity="1.000000" stroke="none" 
	d="
M33.984280,27.582792 
	C33.420475,27.817324 32.862106,27.636274 32.135921,27.203781 
	C31.987963,23.945410 32.007820,20.938482 32.047749,17.481678 
	C33.113216,17.028545 34.158607,17.025288 35.596508,17.041786 
	C35.751720,18.159019 35.514427,19.256495 35.139854,20.669044 
	C34.683491,21.460100 34.364407,21.936081 34.028145,22.713123 
	C34.003887,24.398527 33.996799,25.782869 33.984280,27.582792 
z"/>
<path fill="#1A2732" opacity="1.000000" stroke="none" 
	d="
M43.630630,30.005568 
	C44.003407,30.440714 44.002289,30.871000 43.633232,31.644794 
	C42.520874,31.973471 41.776459,31.958639 41.018074,31.621119 
	C41.008125,30.868265 41.012142,30.438101 41.016159,30.007935 
	C41.763016,30.005526 42.509876,30.003115 43.630630,30.005568 
z"/>
<path fill="#011624" opacity="1.000000" stroke="none" 
	d="
M40.700348,30.003883 
	C41.012142,30.438101 41.008125,30.868265 40.708511,31.640022 
	C40.000278,31.992403 39.587646,32.003193 39.175011,32.013985 
	C39.122261,31.567366 39.069511,31.120745 39.071457,30.338936 
	C39.545609,30.002441 39.965073,30.001137 40.700348,30.003883 
z"/>
<path fill="#424F69" opacity="1.000000" stroke="none" 
	d="
M35.778606,30.073431 
	C35.804653,29.885996 35.830700,29.698561 35.839447,29.227299 
	C35.822147,28.943472 36.261410,28.876598 36.483467,28.883305 
	C36.760101,29.094894 36.814678,29.299774 36.783710,29.811010 
	C36.698170,30.117365 36.307095,30.224695 36.108120,30.181150 
	C35.909145,30.137606 35.778606,30.073431 35.778606,30.073431 
z"/>
<path fill="#000004" opacity="1.000000" stroke="none" 
	d="
M39.132248,32.291664 
	C39.587646,32.003193 40.000278,31.992403 40.722477,31.962709 
	C41.776459,31.958639 42.520874,31.973471 43.637833,31.968172 
	C44.570820,32.378517 45.131260,32.808994 45.818726,33.546593 
	C45.945751,33.853710 46.002144,33.937511 45.789272,33.750954 
	C45.398911,33.628460 45.221416,33.692532 45.043919,33.756603 
	C43.456734,33.684525 41.869549,33.612446 39.886223,33.578110 
	C39.356544,33.267010 39.223011,32.918175 39.132248,32.291664 
z"/>
<path fill="#101A30" opacity="1.000000" stroke="none" 
	d="
M36.174824,34.932693 
	C35.574177,34.788593 34.973526,34.644489 34.183517,34.246979 
	C34.459660,33.675869 34.925163,33.358162 35.725288,33.341122 
	C36.098213,34.072094 36.136520,34.502392 36.174824,34.932693 
z"/>
<path fill="#101A30" opacity="1.000000" stroke="none" 
	d="
M35.907455,30.210316 
	C35.733006,30.655586 35.560242,31.028145 35.387478,31.400703 
	C35.148434,31.247572 34.909393,31.094439 34.670349,30.941307 
	C34.888405,30.654600 35.106461,30.367893 35.551559,30.077309 
	C35.778606,30.073431 35.909145,30.137606 35.907455,30.210316 
z"/>
<path fill="#424F69" opacity="1.000000" stroke="none" 
	d="
M36.379940,34.949310 
	C36.136520,34.502392 36.098213,34.072094 36.021225,33.319550 
	C35.982536,32.997303 36.440479,32.963646 36.669907,32.955101 
	C36.998177,33.402473 37.097012,33.858395 37.095745,34.654373 
	C36.995644,34.994434 36.585056,34.965931 36.379940,34.949310 
z"/>
<path fill="#1A223A" opacity="1.000000" stroke="none" 
	d="
M46.844734,34.095051 
	C47.022869,34.666527 46.913464,35.125294 46.631416,35.750145 
	C46.361584,35.770664 46.264393,35.625095 46.166615,34.982849 
	C46.111401,34.303291 46.056774,34.120403 46.002144,33.937511 
	C46.002144,33.937511 45.945751,33.853710 45.963326,33.806889 
	C46.173004,33.834160 46.365105,33.908249 46.844734,34.095051 
z"/>
<path fill="#CFDCE1" opacity="1.000000" stroke="none" 
	d="
M45.789272,33.750954 
	C46.056774,34.120403 46.111401,34.303291 46.049644,34.747795 
	C45.664928,34.772736 45.396599,34.536064 45.086098,34.027996 
	C45.221416,33.692532 45.398911,33.628460 45.789272,33.750954 
z"/>
</svg>